<svg xmlns="http://www.w3.org/2000/svg" viewBox="0 0 64 64" width="64" height="64" role="img" aria-label="Q-Gress">
  <defs>
    <radialGradient id="qgVig" cx="32" cy="28" r="34" gradientUnits="userSpaceOnUse">
      <stop offset="0" stop-color="#121a26"/>
      <stop offset="1" stop-color="#080b11"/>
    </radialGradient>
    <filter id="qgGlow" x="-50%" y="-50%" width="200%" height="200%">
      <feGaussianBlur stdDeviation=".85" result="bl"/>
      <feMerge><feMergeNode in="bl"/><feMergeNode in="SourceGraphic"/></feMerge>
    </filter>
  </defs>
  <rect x="2" y="2" width="60" height="60" rx="14" fill="url(#qgVig)"/>
  <rect x="2.5" y="2.5" width="59" height="59" rx="13.5" fill="none" stroke="#222b3b" stroke-width="1"/>
  <polygon points="32.0,9.0 44.7,14.3 32.0,16.0" fill="#0088FF" fill-opacity=".52"/>
  <polygon points="44.7,14.3 39.8,19.2 32.0,16.0" fill="#0088FF" fill-opacity=".52"/>
  <polygon points="44.7,14.3 50.0,27.0 39.8,19.2" fill="#0088FF" fill-opacity=".52"/>
  <polygon points="50.0,27.0 43.0,27.0 39.8,19.2" fill="#0088FF" fill-opacity=".52"/>
  <polygon points="50.0,27.0 44.7,39.7 43.0,27.0" fill="#0088FF" fill-opacity=".52"/>
  <polygon points="44.7,39.7 39.8,34.8 43.0,27.0" fill="#0088FF" fill-opacity=".52"/>
  <polygon points="44.7,39.7 32.0,45.0 39.8,34.8" fill="#0088FF" fill-opacity=".52"/>
  <polygon points="32.0,45.0 32.0,38.0 39.8,34.8" fill="#0088FF" fill-opacity=".52"/>
  <polygon points="32.0,45.0 19.3,39.7 32.0,38.0" fill="#03DC03" fill-opacity=".52"/>
  <polygon points="19.3,39.7 24.2,34.8 32.0,38.0" fill="#03DC03" fill-opacity=".52"/>
  <polygon points="19.3,39.7 14.0,27.0 24.2,34.8" fill="#03DC03" fill-opacity=".52"/>
  <polygon points="14.0,27.0 21.0,27.0 24.2,34.8" fill="#03DC03" fill-opacity=".52"/>
  <polygon points="14.0,27.0 19.3,14.3 21.0,27.0" fill="#03DC03" fill-opacity=".52"/>
  <polygon points="19.3,14.3 24.2,19.2 21.0,27.0" fill="#03DC03" fill-opacity=".52"/>
  <polygon points="19.3,14.3 32.0,9.0 24.2,19.2" fill="#03DC03" fill-opacity=".52"/>
  <polygon points="32.0,9.0 32.0,16.0 24.2,19.2" fill="#03DC03" fill-opacity=".52"/>
  <g stroke="#dfe8f5" fill="none" stroke-opacity=".7" stroke-width="1.0" stroke-linecap="round" stroke-linejoin="round">
    <line x1="32.0" y1="16.0" x2="39.8" y2="19.2"/>
    <line x1="32.0" y1="9.0" x2="32.0" y2="16.0"/>
    <line x1="44.7" y1="14.3" x2="32.0" y2="16.0"/>
    <line x1="39.8" y1="19.2" x2="43.0" y2="27.0"/>
    <line x1="44.7" y1="14.3" x2="39.8" y2="19.2"/>
    <line x1="50.0" y1="27.0" x2="39.8" y2="19.2"/>
    <line x1="43.0" y1="27.0" x2="39.8" y2="34.8"/>
    <line x1="50.0" y1="27.0" x2="43.0" y2="27.0"/>
    <line x1="44.7" y1="39.7" x2="43.0" y2="27.0"/>
    <line x1="39.8" y1="34.8" x2="32.0" y2="38.0"/>
    <line x1="44.7" y1="39.7" x2="39.8" y2="34.8"/>
    <line x1="32.0" y1="45.0" x2="39.8" y2="34.8"/>
    <line x1="32.0" y1="38.0" x2="24.2" y2="34.8"/>
    <line x1="32.0" y1="45.0" x2="32.0" y2="38.0"/>
    <line x1="19.3" y1="39.7" x2="32.0" y2="38.0"/>
    <line x1="24.2" y1="34.8" x2="21.0" y2="27.0"/>
    <line x1="19.3" y1="39.7" x2="24.2" y2="34.8"/>
    <line x1="14.0" y1="27.0" x2="24.2" y2="34.8"/>
    <line x1="21.0" y1="27.0" x2="24.2" y2="19.2"/>
    <line x1="14.0" y1="27.0" x2="21.0" y2="27.0"/>
    <line x1="19.3" y1="14.3" x2="21.0" y2="27.0"/>
    <line x1="24.2" y1="19.2" x2="32.0" y2="16.0"/>
    <line x1="19.3" y1="14.3" x2="24.2" y2="19.2"/>
    <line x1="32.0" y1="9.0" x2="24.2" y2="19.2"/>
  </g>
  <g filter="url(#qgGlow)" stroke="#dfe8f5" fill="none" stroke-linecap="round" stroke-linejoin="round" stroke-width="2.3">
    <line x1="32.0" y1="9.0" x2="44.7" y2="14.3"/>
    <line x1="44.7" y1="14.3" x2="50.0" y2="27.0"/>
    <line x1="50.0" y1="27.0" x2="44.7" y2="39.7"/>
    <line x1="44.7" y1="39.7" x2="32.0" y2="45.0"/>
    <line x1="32.0" y1="45.0" x2="19.3" y2="39.7"/>
    <line x1="19.3" y1="39.7" x2="14.0" y2="27.0"/>
    <line x1="14.0" y1="27.0" x2="19.3" y2="14.3"/>
    <line x1="19.3" y1="14.3" x2="32.0" y2="9.0"/>
    <line x1="32" y1="45.0" x2="32" y2="55"/>
  </g>
  <g filter="url(#qgGlow)">
    <circle cx="32.0" cy="9.0" r="3.0" fill="#0a0e16" stroke="#dfe8f5" stroke-width=".8"/>
    <circle cx="44.7" cy="14.3" r="3.0" fill="#0088FF" stroke="#dfe8f5" stroke-width=".8"/>
    <circle cx="50.0" cy="27.0" r="3.0" fill="#0088FF" stroke="#dfe8f5" stroke-width=".8"/>
    <circle cx="44.7" cy="39.7" r="3.0" fill="#0088FF" stroke="#dfe8f5" stroke-width=".8"/>
    <circle cx="32.0" cy="45.0" r="3.0" fill="#0a0e16" stroke="#dfe8f5" stroke-width=".8"/>
    <circle cx="19.3" cy="39.7" r="3.0" fill="#03DC03" stroke="#dfe8f5" stroke-width=".8"/>
    <circle cx="14.0" cy="27.0" r="3.0" fill="#03DC03" stroke="#dfe8f5" stroke-width=".8"/>
    <circle cx="19.3" cy="14.3" r="3.0" fill="#03DC03" stroke="#dfe8f5" stroke-width=".8"/>
    <circle cx="32" cy="55" r="3.0" fill="#0a0e16" stroke="#dfe8f5" stroke-width=".8"/>
  </g>
  <g>
    <circle cx="32.0" cy="9.0" r="1.2" fill="#ffffff"/>
    <circle cx="44.7" cy="14.3" r="1.2" fill="#ffffff"/>
    <circle cx="50.0" cy="27.0" r="1.2" fill="#ffffff"/>
    <circle cx="44.7" cy="39.7" r="1.2" fill="#ffffff"/>
    <circle cx="32.0" cy="45.0" r="1.2" fill="#ffffff"/>
    <circle cx="19.3" cy="39.7" r="1.2" fill="#ffffff"/>
    <circle cx="14.0" cy="27.0" r="1.2" fill="#ffffff"/>
    <circle cx="19.3" cy="14.3" r="1.2" fill="#ffffff"/>
    <circle cx="32" cy="55" r="1.2" fill="#ffffff"/>
  </g>
</svg>
