<svg xmlns="http://www.w3.org/2000/svg" xmlns:xlink="http://www.w3.org/1999/xlink" viewBox="0 0 1280 360" width="1280" height="360">
  <defs>
    <linearGradient id="bg" x1="0" y1="0" x2="0" y2="1"><stop offset="0" stop-color="#0e1622"/><stop offset="1" stop-color="#06090f"/></linearGradient>
    <radialGradient id="gG" cx="0.14" cy="0.9" r="0.65"><stop offset="0" stop-color="#03DC03" stop-opacity=".15"/><stop offset="1" stop-color="#03DC03" stop-opacity="0"/></radialGradient>
    <radialGradient id="gB" cx="0.9" cy="0.12" r="0.65"><stop offset="0" stop-color="#0088FF" stop-opacity=".15"/><stop offset="1" stop-color="#0088FF" stop-opacity="0"/></radialGradient>
    <filter id="tg" x="-20%" y="-20%" width="140%" height="140%"><feGaussianBlur stdDeviation="2" result="b"/><feMerge><feMergeNode in="b"/><feMergeNode in="SourceGraphic"/></feMerge></filter>
  </defs>
  <rect width="1280" height="360" fill="url(#bg)"/>
  <rect width="1280" height="360" fill="url(#gG)"/>
  <rect width="1280" height="360" fill="url(#gB)"/>
  <image x="127" y="60" width="240" height="240" xlink:href="logo.png"/>
  <g filter="url(#tg)" transform="translate(425.3,238.3)"><path d="M95.16 -6.84 L111.00 9.36 L96.96 23.28 L73.56 -0.00 L28.32 -0.00 L9.12 -19.20 L9.12 -97.56 L28.32 -116.64 L88.32 -116.64 L107.52 -97.56 L107.52 -19.20 L95.16 -6.84 Z M40.32 -19.32 L76.32 -19.32 L84.84 -27.84 L84.84 -88.80 L76.32 -97.32 L40.32 -97.32 L31.80 -88.80 L31.80 -27.84 L40.32 -19.32 Z M123.36 -33.36 L123.36 -52.32 L181.92 -52.32 L181.92 -33.36 L123.36 -33.36 Z M216.96 -0.00 L197.76 -19.20 L197.76 -97.56 L216.96 -116.64 L274.92 -116.64 L293.76 -97.80 L293.76 -80.04 L271.20 -80.04 L271.20 -89.52 L263.28 -97.32 L228.96 -97.32 L220.44 -88.80 L220.44 -27.84 L228.96 -19.32 L263.64 -19.32 L271.80 -27.48 L271.80 -45.72 L246.84 -45.72 L246.84 -65.04 L293.76 -65.04 L293.76 -19.20 L274.68 -0.00 L216.96 -0.00 Z M391.80 -51.84 L403.80 -38.64 L403.80 -0.00 L381.12 -0.00 L381.12 -33.48 L371.16 -44.64 L334.80 -44.64 L334.80 -0.00 L312.12 -0.00 L312.12 -116.64 L385.32 -116.64 L403.20 -98.64 L403.20 -63.36 L391.80 -51.84 Z M334.80 -97.68 L334.80 -63.36 L375.00 -63.36 L380.88 -69.12 L380.88 -91.80 L375.00 -97.68 L334.80 -97.68 Z M424.68 -0.00 L424.68 -116.64 L509.04 -116.64 L509.04 -97.56 L447.36 -97.56 L447.36 -68.04 L504.24 -68.04 L504.24 -49.20 L447.36 -49.20 L447.36 -19.20 L509.04 -19.20 L509.04 -0.00 L424.68 -0.00 Z M541.20 -0.00 L523.20 -18.00 L523.20 -34.68 L545.64 -34.68 L545.64 -24.84 L551.04 -19.32 L585.60 -19.32 L591.24 -24.96 L591.24 -44.28 L585.72 -49.80 L541.56 -49.80 L523.56 -67.80 L523.56 -98.64 L541.56 -116.64 L594.24 -116.64 L612.24 -98.64 L612.24 -81.84 L589.92 -81.84 L589.92 -91.80 L584.40 -97.32 L551.40 -97.32 L545.88 -91.80 L545.88 -74.64 L551.40 -69.12 L595.56 -69.12 L613.56 -51.12 L613.56 -18.36 L595.20 -0.00 L541.20 -0.00 Z M647.40 -0.00 L629.40 -18.00 L629.40 -34.68 L651.84 -34.68 L651.84 -24.84 L657.24 -19.32 L691.80 -19.32 L697.44 -24.96 L697.44 -44.28 L691.92 -49.80 L647.76 -49.80 L629.76 -67.80 L629.76 -98.64 L647.76 -116.64 L700.44 -116.64 L718.44 -98.64 L718.44 -81.84 L696.12 -81.84 L696.12 -91.80 L690.60 -97.32 L657.60 -97.32 L652.08 -91.80 L652.08 -74.64 L657.60 -69.12 L701.76 -69.12 L719.76 -51.12 L719.76 -18.36 L701.40 -0.00 L647.40 -0.00 Z" fill="#eef3fa"/></g>
  <g filter="url(#tg)" stroke-width="4" stroke-linecap="round">
    <line x1="425.3" y1="268.3" x2="789.0" y2="268.3" stroke="#03DC03"/>
    <line x1="789.0" y1="268.3" x2="1152.7" y2="268.3" stroke="#0088FF"/>
  </g>
</svg>
