<svg xmlns="http://www.w3.org/2000/svg" xmlns:xlink="http://www.w3.org/1999/xlink" viewBox="0 0 1280 640" width="1280" height="640">
  <defs>
    <linearGradient id="bg" x1="0" y1="0" x2="0" y2="1"><stop offset="0" stop-color="#0e1622"/><stop offset="1" stop-color="#06090f"/></linearGradient>
    <radialGradient id="gG" cx="0.14" cy="0.9" r="0.6"><stop offset="0" stop-color="#03DC03" stop-opacity=".15"/><stop offset="1" stop-color="#03DC03" stop-opacity="0"/></radialGradient>
    <radialGradient id="gB" cx="0.9" cy="0.12" r="0.6"><stop offset="0" stop-color="#0088FF" stop-opacity=".15"/><stop offset="1" stop-color="#0088FF" stop-opacity="0"/></radialGradient>
    <filter id="tg" x="-20%" y="-20%" width="140%" height="140%"><feGaussianBlur stdDeviation="2" result="b"/><feMerge><feMergeNode in="b"/><feMergeNode in="SourceGraphic"/></feMerge></filter>
  </defs>
  <rect width="1280" height="640" fill="url(#bg)"/>
  <rect width="1280" height="640" fill="url(#gG)"/>
  <rect width="1280" height="640" fill="url(#gB)"/>
  <image x="63" y="170" width="300" height="300" xlink:href="logo.png"/>
  <g filter="url(#tg)" transform="translate(429.0,383.2)"><path d="M103.09 -7.41 L120.25 10.14 L105.04 25.22 L79.69 -0.00 L30.68 -0.00 L9.88 -20.80 L9.88 -105.69 L30.68 -126.36 L95.68 -126.36 L116.48 -105.69 L116.48 -20.80 L103.09 -7.41 Z M43.68 -20.93 L82.68 -20.93 L91.91 -30.16 L91.91 -96.20 L82.68 -105.43 L43.68 -105.43 L34.45 -96.20 L34.45 -30.16 L43.68 -20.93 Z M133.64 -36.14 L133.64 -56.68 L197.08 -56.68 L197.08 -36.14 L133.64 -36.14 Z M235.04 -0.00 L214.24 -20.80 L214.24 -105.69 L235.04 -126.36 L297.83 -126.36 L318.24 -105.95 L318.24 -86.71 L293.80 -86.71 L293.80 -96.98 L285.22 -105.43 L248.04 -105.43 L238.81 -96.20 L238.81 -30.16 L248.04 -20.93 L285.61 -20.93 L294.45 -29.77 L294.45 -49.53 L267.41 -49.53 L267.41 -70.46 L318.24 -70.46 L318.24 -20.80 L297.57 -0.00 L235.04 -0.00 Z M424.45 -56.16 L437.45 -41.86 L437.45 -0.00 L412.88 -0.00 L412.88 -36.27 L402.09 -48.36 L362.70 -48.36 L362.70 -0.00 L338.13 -0.00 L338.13 -126.36 L417.43 -126.36 L436.80 -106.86 L436.80 -68.64 L424.45 -56.16 Z M362.70 -105.82 L362.70 -68.64 L406.25 -68.64 L412.62 -74.88 L412.62 -99.45 L406.25 -105.82 L362.70 -105.82 Z M460.07 -0.00 L460.07 -126.36 L551.46 -126.36 L551.46 -105.69 L484.64 -105.69 L484.64 -73.71 L546.26 -73.71 L546.26 -53.30 L484.64 -53.30 L484.64 -20.80 L551.46 -20.80 L551.46 -0.00 L460.07 -0.00 Z M586.30 -0.00 L566.80 -19.50 L566.80 -37.57 L591.11 -37.57 L591.11 -26.91 L596.96 -20.93 L634.40 -20.93 L640.51 -27.04 L640.51 -47.97 L634.53 -53.95 L586.69 -53.95 L567.19 -73.45 L567.19 -106.86 L586.69 -126.36 L643.76 -126.36 L663.26 -106.86 L663.26 -88.66 L639.08 -88.66 L639.08 -99.45 L633.10 -105.43 L597.35 -105.43 L591.37 -99.45 L591.37 -80.86 L597.35 -74.88 L645.19 -74.88 L664.69 -55.38 L664.69 -19.89 L644.80 -0.00 L586.30 -0.00 Z M701.35 -0.00 L681.85 -19.50 L681.85 -37.57 L706.16 -37.57 L706.16 -26.91 L712.01 -20.93 L749.45 -20.93 L755.56 -27.04 L755.56 -47.97 L749.58 -53.95 L701.74 -53.95 L682.24 -73.45 L682.24 -106.86 L701.74 -126.36 L758.81 -126.36 L778.31 -106.86 L778.31 -88.66 L754.13 -88.66 L754.13 -99.45 L748.15 -105.43 L712.40 -105.43 L706.42 -99.45 L706.42 -80.86 L712.40 -74.88 L760.24 -74.88 L779.74 -55.38 L779.74 -19.89 L759.85 -0.00 L701.35 -0.00 Z" fill="#eef3fa"/></g>
  <g filter="url(#tg)" stroke-width="4" stroke-linecap="round">
    <line x1="429.0" y1="417.2" x2="823.0" y2="417.2" stroke="#03DC03"/>
    <line x1="823.0" y1="417.2" x2="1217.0" y2="417.2" stroke="#0088FF"/>
  </g>
</svg>
